<mxfile host="Electron" modified="2021-10-03T07:26:03.419Z" agent="5.0 (Windows NT 10.0; Win64; x64) AppleWebKit/537.36 (KHTML, like Gecko) draw.io/15.3.8 Chrome/91.0.4472.164 Electron/13.5.0 Safari/537.36" etag="gx_qecepYTgyP9nUntBY" compressed="false" version="15.3.8" type="device">
  <diagram id="Qa77dYHcRy5dU1d4dy6T" name="Page-1">
    <mxGraphModel dx="950" dy="493" grid="0" gridSize="10" guides="1" tooltips="1" connect="1" arrows="1" fold="1" page="1" pageScale="1" pageWidth="850" pageHeight="1100" math="0" shadow="0">
      <root>
        <mxCell id="0" />
        <mxCell id="1" parent="0" />
        <mxCell id="z-ZfQAUh8bczPbL0wc4s-18" value="pubKeygen" style="rounded=0;whiteSpace=wrap;html=1;fontColor=#A6A6A6;" parent="1" vertex="1">
          <mxGeometry x="508" y="167" width="148" height="61" as="geometry" />
        </mxCell>
        <mxCell id="z-ZfQAUh8bczPbL0wc4s-19" value="inPriv (8*&lt;span style=&quot;color: rgb(255 , 204 , 153) ; text-align: left&quot;&gt;8&lt;/span&gt;)" style="text;html=1;strokeColor=none;fillColor=none;align=center;verticalAlign=middle;whiteSpace=wrap;rounded=0;" parent="1" vertex="1">
          <mxGeometry x="510" y="170" width="63.65" height="20" as="geometry" />
        </mxCell>
        <mxCell id="z-ZfQAUh8bczPbL0wc4s-27" value="outB (8*&lt;span style=&quot;color: rgb(255 , 204 , 153) ; text-align: left&quot;&gt;8&lt;/span&gt;)" style="text;html=1;strokeColor=none;fillColor=none;align=center;verticalAlign=middle;whiteSpace=wrap;rounded=0;" parent="1" vertex="1">
          <mxGeometry x="595.47" y="207" width="61" height="20" as="geometry" />
        </mxCell>
        <mxCell id="z-ZfQAUh8bczPbL0wc4s-21" value="fixedMod(q)" style="rounded=0;whiteSpace=wrap;html=1;fontColor=#A6A6A6;" parent="1" vertex="1">
          <mxGeometry x="679" y="880.5" width="128" height="64" as="geometry" />
        </mxCell>
        <mxCell id="z-ZfQAUh8bczPbL0wc4s-24" value="output (q:width)" style="text;html=1;align=center;verticalAlign=middle;resizable=0;points=[];autosize=1;strokeColor=none;fillColor=none;" parent="1" vertex="1">
          <mxGeometry x="715" y="881.5" width="93" height="18" as="geometry" />
        </mxCell>
        <mxCell id="z-ZfQAUh8bczPbL0wc4s-62" value="input (q:width)" style="text;html=1;strokeColor=none;fillColor=none;align=center;verticalAlign=middle;whiteSpace=wrap;rounded=0;" parent="1" vertex="1">
          <mxGeometry x="679" y="924.5" width="83" height="20" as="geometry" />
        </mxCell>
        <mxCell id="z-ZfQAUh8bczPbL0wc4s-49" value="decrypt(m,n)" style="rounded=0;whiteSpace=wrap;html=1;fontColor=#A6A6A6;" parent="1" vertex="1">
          <mxGeometry x="165" y="223.5" width="163.5" height="87" as="geometry" />
        </mxCell>
        <mxCell id="z-ZfQAUh8bczPbL0wc4s-65" value="outM" style="text;html=1;align=center;verticalAlign=middle;resizable=0;points=[];autosize=1;strokeColor=none;fillColor=none;" parent="1" vertex="1">
          <mxGeometry x="288.5" y="257" width="40" height="20" as="geometry" />
        </mxCell>
        <mxCell id="z-ZfQAUh8bczPbL0wc4s-48" value="encrypt(m,n)" style="rounded=0;whiteSpace=wrap;html=1;fontColor=#A6A6A6;" parent="1" vertex="1">
          <mxGeometry x="165" y="87.5" width="163" height="86" as="geometry" />
        </mxCell>
        <mxCell id="z-ZfQAUh8bczPbL0wc4s-50" value="inA (8*&lt;span style=&quot;color: rgb(255 , 204 , 153) ; text-align: left&quot;&gt;8&lt;/span&gt;*&lt;span style=&quot;color: rgb(255 , 204 , 153) ; text-align: left&quot;&gt;8&lt;/span&gt;)" style="text;html=1;strokeColor=none;fillColor=none;align=center;verticalAlign=middle;whiteSpace=wrap;rounded=0;" parent="1" vertex="1">
          <mxGeometry x="163" y="135.5" width="72" height="20" as="geometry" />
        </mxCell>
        <mxCell id="z-ZfQAUh8bczPbL0wc4s-51" value="inB (8*&lt;span style=&quot;color: rgb(255 , 204 , 153) ; text-align: left&quot;&gt;8&lt;/span&gt;)" style="text;html=1;strokeColor=none;fillColor=none;align=center;verticalAlign=middle;whiteSpace=wrap;rounded=0;" parent="1" vertex="1">
          <mxGeometry x="164" y="152.5" width="59" height="20" as="geometry" />
        </mxCell>
        <mxCell id="z-ZfQAUh8bczPbL0wc4s-52" value="inM" style="text;html=1;align=center;verticalAlign=middle;resizable=0;points=[];autosize=1;strokeColor=none;fillColor=none;" parent="1" vertex="1">
          <mxGeometry x="164" y="105.5" width="30" height="20" as="geometry" />
        </mxCell>
        <mxCell id="z-ZfQAUh8bczPbL0wc4s-53" value="outU (8*&lt;span style=&quot;color: rgb(255 , 204 , 153) ; text-align: left&quot;&gt;8&lt;/span&gt;)" style="text;html=1;align=center;verticalAlign=middle;resizable=0;points=[];autosize=1;strokeColor=none;fillColor=none;" parent="1" vertex="1">
          <mxGeometry x="264" y="88.5" width="65" height="18" as="geometry" />
        </mxCell>
        <mxCell id="z-ZfQAUh8bczPbL0wc4s-54" value="outV (8)" style="text;html=1;align=center;verticalAlign=middle;resizable=0;points=[];autosize=1;strokeColor=none;fillColor=none;" parent="1" vertex="1">
          <mxGeometry x="272" y="152.5" width="60" height="20" as="geometry" />
        </mxCell>
        <mxCell id="z-ZfQAUh8bczPbL0wc4s-59" value="inQ (7)" style="text;html=1;align=center;verticalAlign=middle;resizable=0;points=[];autosize=1;strokeColor=none;fillColor=none;" parent="1" vertex="1">
          <mxGeometry x="164" y="88.5" width="47" height="18" as="geometry" />
        </mxCell>
        <mxCell id="z-ZfQAUh8bczPbL0wc4s-20" value="privKeygen" style="rounded=0;whiteSpace=wrap;html=1;fontColor=#A6A6A6;" parent="1" vertex="1">
          <mxGeometry x="508.47" y="59" width="146.53" height="60" as="geometry" />
        </mxCell>
        <mxCell id="z-ZfQAUh8bczPbL0wc4s-26" value="outPriv (8*&lt;span style=&quot;color: rgb(255 , 204 , 153) ; text-align: left&quot;&gt;8&lt;/span&gt;)" style="text;html=1;strokeColor=none;fillColor=none;align=center;verticalAlign=middle;whiteSpace=wrap;rounded=0;" parent="1" vertex="1">
          <mxGeometry x="577" y="61" width="77" height="20" as="geometry" />
        </mxCell>
        <mxCell id="z-ZfQAUh8bczPbL0wc4s-1" value="RNG(i:width)" style="rounded=0;whiteSpace=wrap;html=1;fontColor=#A6A6A6;" parent="1" vertex="1">
          <mxGeometry x="419.47" y="749" width="119" height="60" as="geometry" />
        </mxCell>
        <mxCell id="z-ZfQAUh8bczPbL0wc4s-4" value="output (i)" style="text;html=1;strokeColor=none;fillColor=none;align=center;verticalAlign=middle;whiteSpace=wrap;rounded=0;" parent="1" vertex="1">
          <mxGeometry x="477.47" y="749" width="62" height="20" as="geometry" />
        </mxCell>
        <mxCell id="z-ZfQAUh8bczPbL0wc4s-37" value="primeGen(i:width)" style="whiteSpace=wrap;html=1;fontColor=#A6A6A6;" parent="1" vertex="1">
          <mxGeometry x="418.47" y="957" width="120" height="62" as="geometry" />
        </mxCell>
        <mxCell id="z-ZfQAUh8bczPbL0wc4s-38" value="ready" style="text;html=1;strokeColor=none;fillColor=none;align=center;verticalAlign=middle;whiteSpace=wrap;rounded=0;" parent="1" vertex="1">
          <mxGeometry x="498.47" y="957" width="40" height="20" as="geometry" />
        </mxCell>
        <mxCell id="z-ZfQAUh8bczPbL0wc4s-9" value="multiply(i:width)" style="rounded=0;whiteSpace=wrap;html=1;container=0;fontColor=#A6A6A6;" parent="1" vertex="1">
          <mxGeometry x="417.47" y="855" width="121" height="60" as="geometry" />
        </mxCell>
        <mxCell id="z-ZfQAUh8bczPbL0wc4s-13" value="in1 (i)" style="text;html=1;align=center;verticalAlign=middle;resizable=0;points=[];autosize=1;strokeColor=none;fillColor=none;container=0;" parent="1" vertex="1">
          <mxGeometry x="417.47" y="854" width="40" height="18" as="geometry" />
        </mxCell>
        <mxCell id="z-ZfQAUh8bczPbL0wc4s-14" value="output (i)" style="text;html=1;strokeColor=none;fillColor=none;align=center;verticalAlign=middle;whiteSpace=wrap;rounded=0;container=0;" parent="1" vertex="1">
          <mxGeometry x="481.47" y="895" width="57" height="20" as="geometry" />
        </mxCell>
        <mxCell id="z-ZfQAUh8bczPbL0wc4s-15" value="in2 (i)" style="text;html=1;align=center;verticalAlign=middle;resizable=0;points=[];autosize=1;strokeColor=none;fillColor=none;container=0;" parent="1" vertex="1">
          <mxGeometry x="417.47" y="895" width="40" height="18" as="geometry" />
        </mxCell>
        <mxCell id="z-ZfQAUh8bczPbL0wc4s-16" value="ready" style="text;html=1;align=center;verticalAlign=middle;resizable=0;points=[];autosize=1;strokeColor=none;fillColor=none;container=0;" parent="1" vertex="1">
          <mxGeometry x="492.47" y="855" width="50" height="20" as="geometry" />
        </mxCell>
        <mxCell id="HXlSVpTfHzc4MRkyUJ3o-3" value="output (i)" style="text;html=1;strokeColor=none;fillColor=none;align=center;verticalAlign=middle;whiteSpace=wrap;rounded=0;fontColor=#FFFFFF;" vertex="1" parent="1">
          <mxGeometry x="482.47" y="999" width="55" height="20" as="geometry" />
        </mxCell>
        <mxCell id="HXlSVpTfHzc4MRkyUJ3o-5" value="&lt;h1 style=&quot;text-align: left&quot;&gt;&lt;br&gt;&lt;/h1&gt;" style="rounded=1;whiteSpace=wrap;html=1;fontColor=#FFFFFF;glass=0;shadow=0;sketch=0;spacing=10;spacingTop=-5;dashed=1;" vertex="1" parent="1">
          <mxGeometry x="702" y="59" width="219" height="339" as="geometry" />
        </mxCell>
        <mxCell id="HXlSVpTfHzc4MRkyUJ3o-7" value="&lt;h1 style=&quot;text-align: left&quot;&gt;&lt;br&gt;&lt;/h1&gt;" style="text;html=1;strokeColor=none;fillColor=none;align=center;verticalAlign=middle;whiteSpace=wrap;rounded=0;shadow=0;glass=0;dashed=1;sketch=0;fontColor=#FFFFFF;" vertex="1" parent="1">
          <mxGeometry x="713" y="105" width="204" height="55" as="geometry" />
        </mxCell>
        <mxCell id="HXlSVpTfHzc4MRkyUJ3o-8" value="&lt;h1 style=&quot;text-align: left&quot;&gt;Note&lt;/h1&gt;" style="text;html=1;align=center;verticalAlign=middle;resizable=0;points=[];autosize=1;strokeColor=none;fillColor=none;fontColor=#FFFFFF;" vertex="1" parent="1">
          <mxGeometry x="712" y="79" width="63" height="50" as="geometry" />
        </mxCell>
        <mxCell id="HXlSVpTfHzc4MRkyUJ3o-10" value="All components can connect to&lt;br&gt;* CLK (1) - clock source&lt;br&gt;* RST (1) - reset on high&lt;font color=&quot;#b3b3b3&quot;&gt;&lt;br&gt;&lt;/font&gt;* sizeM (8) - Size of M (max 255)&lt;br&gt;* sizeN (8) - Size of N (max 255)&lt;font color=&quot;#b3b3b3&quot;&gt;&lt;br&gt;&lt;/font&gt;" style="text;html=1;strokeColor=none;fillColor=none;align=left;verticalAlign=middle;whiteSpace=wrap;rounded=0;shadow=0;glass=0;dashed=1;sketch=0;fontColor=#FFFFFF;" vertex="1" parent="1">
          <mxGeometry x="716" y="119.5" width="195" height="76.5" as="geometry" />
        </mxCell>
        <mxCell id="HXlSVpTfHzc4MRkyUJ3o-17" value="" style="group;" vertex="1" connectable="0" parent="1">
          <mxGeometry x="735" y="285" width="161" height="60" as="geometry" />
        </mxCell>
        <mxCell id="HXlSVpTfHzc4MRkyUJ3o-11" value="&lt;span style=&quot;color: rgb(166 , 166 , 166)&quot;&gt;&lt;font style=&quot;font-size: 10px&quot;&gt;exampleComponent(generic:type)&lt;/font&gt;&lt;/span&gt;" style="rounded=0;whiteSpace=wrap;html=1;shadow=0;glass=0;sketch=0;fontColor=#FFFFFF;align=center;" vertex="1" parent="HXlSVpTfHzc4MRkyUJ3o-17">
          <mxGeometry width="161" height="60" as="geometry" />
        </mxCell>
        <mxCell id="HXlSVpTfHzc4MRkyUJ3o-13" value="input1" style="text;html=1;strokeColor=none;fillColor=none;align=center;verticalAlign=middle;whiteSpace=wrap;rounded=0;" vertex="1" parent="HXlSVpTfHzc4MRkyUJ3o-17">
          <mxGeometry x="3" y="4" width="36" height="20" as="geometry" />
        </mxCell>
        <mxCell id="HXlSVpTfHzc4MRkyUJ3o-14" value="input2 (width)" style="text;html=1;strokeColor=none;fillColor=none;align=center;verticalAlign=middle;whiteSpace=wrap;rounded=0;" vertex="1" parent="HXlSVpTfHzc4MRkyUJ3o-17">
          <mxGeometry x="2" y="37" width="75" height="20" as="geometry" />
        </mxCell>
        <mxCell id="HXlSVpTfHzc4MRkyUJ3o-16" value="output1" style="text;html=1;strokeColor=none;fillColor=none;align=center;verticalAlign=middle;whiteSpace=wrap;rounded=0;shadow=0;glass=0;sketch=0;fontColor=#FFFFFF;" vertex="1" parent="HXlSVpTfHzc4MRkyUJ3o-17">
          <mxGeometry x="115" y="4" width="40" height="20" as="geometry" />
        </mxCell>
        <mxCell id="HXlSVpTfHzc4MRkyUJ3o-18" value="variableMod" style="rounded=0;whiteSpace=wrap;html=1;fontColor=#A6A6A6;" vertex="1" parent="1">
          <mxGeometry x="510" y="264.5" width="151" height="66" as="geometry" />
        </mxCell>
        <mxCell id="HXlSVpTfHzc4MRkyUJ3o-19" value="output (8)" style="text;html=1;align=center;verticalAlign=middle;resizable=0;points=[];autosize=1;strokeColor=none;fillColor=none;" vertex="1" parent="1">
          <mxGeometry x="594" y="263.5" width="70" height="20" as="geometry" />
        </mxCell>
        <mxCell id="HXlSVpTfHzc4MRkyUJ3o-20" value="inQ (8)" style="text;html=1;strokeColor=none;fillColor=none;align=center;verticalAlign=middle;whiteSpace=wrap;rounded=0;" vertex="1" parent="1">
          <mxGeometry x="510" y="263.5" width="48" height="20" as="geometry" />
        </mxCell>
        <mxCell id="HXlSVpTfHzc4MRkyUJ3o-21" value="input (8)" style="text;html=1;strokeColor=none;fillColor=none;align=center;verticalAlign=middle;whiteSpace=wrap;rounded=0;" vertex="1" parent="1">
          <mxGeometry x="510" y="304.5" width="54" height="20" as="geometry" />
        </mxCell>
        <mxCell id="HXlSVpTfHzc4MRkyUJ3o-24" value="Generic &lt;font color=&quot;#b3b3b3&quot;&gt;q&lt;/font&gt; is the actual divisor" style="shape=callout;whiteSpace=wrap;html=1;perimeter=calloutPerimeter;rounded=1;shadow=0;glass=0;sketch=0;fontColor=#FFFFFF;align=left;position2=1;spacing=6;" vertex="1" parent="1">
          <mxGeometry x="599" y="785.5" width="120" height="80" as="geometry" />
        </mxCell>
        <mxCell id="HXlSVpTfHzc4MRkyUJ3o-25" value="&lt;span style=&quot;color: rgb(240 , 240 , 240) ; font-family: &amp;#34;helvetica&amp;#34;&quot;&gt;inS (&lt;/span&gt;&lt;span style=&quot;color: rgb(255 , 204 , 153) ; text-align: left&quot;&gt;8&lt;/span&gt;&lt;span style=&quot;color: rgb(240 , 240 , 240) ; font-family: &amp;#34;helvetica&amp;#34;&quot;&gt;)&lt;/span&gt;" style="text;html=1;strokeColor=none;fillColor=none;align=center;verticalAlign=middle;whiteSpace=wrap;rounded=0;shadow=0;glass=0;sketch=0;fontColor=#FFFFFF;" vertex="1" parent="1">
          <mxGeometry x="164" y="240.5" width="47" height="20" as="geometry" />
        </mxCell>
        <mxCell id="HXlSVpTfHzc4MRkyUJ3o-26" value="&lt;span style=&quot;color: rgb(240 , 240 , 240)&quot;&gt;inV (8)&lt;/span&gt;" style="text;html=1;strokeColor=none;fillColor=none;align=center;verticalAlign=middle;whiteSpace=wrap;rounded=0;shadow=0;glass=0;sketch=0;fontColor=#FFFFFF;" vertex="1" parent="1">
          <mxGeometry x="164" y="289.5" width="47" height="20" as="geometry" />
        </mxCell>
        <mxCell id="HXlSVpTfHzc4MRkyUJ3o-27" value="&lt;span style=&quot;color: rgb(240 , 240 , 240)&quot;&gt;inU (8,&lt;/span&gt;&lt;span style=&quot;color: rgb(255 , 204 , 153) ; text-align: left&quot;&gt;8&lt;/span&gt;&lt;span style=&quot;color: rgb(240 , 240 , 240)&quot;&gt;)&lt;/span&gt;" style="text;html=1;strokeColor=none;fillColor=none;align=center;verticalAlign=middle;whiteSpace=wrap;rounded=0;shadow=0;glass=0;sketch=0;fontColor=#FFFFFF;" vertex="1" parent="1">
          <mxGeometry x="165" y="273.5" width="56" height="20" as="geometry" />
        </mxCell>
        <mxCell id="HXlSVpTfHzc4MRkyUJ3o-28" value="inQ (6)" style="text;html=1;align=center;verticalAlign=middle;resizable=0;points=[];autosize=1;strokeColor=none;fillColor=none;" vertex="1" parent="1">
          <mxGeometry x="164.5" y="224.5" width="47" height="18" as="geometry" />
        </mxCell>
        <mxCell id="HXlSVpTfHzc4MRkyUJ3o-29" value="&lt;font color=&quot;#b3b3b3&quot;&gt;q/4&lt;/font&gt; is just &lt;font color=&quot;#b3b3b3&quot;&gt;q &amp;gt;&amp;gt; 2&lt;/font&gt;&lt;br&gt;(Pass the first n-2 lanes)" style="shape=callout;whiteSpace=wrap;html=1;perimeter=calloutPerimeter;rounded=1;shadow=0;glass=0;sketch=0;fontColor=#FFFFFF;align=left;position2=1;spacing=6;" vertex="1" parent="1">
          <mxGeometry x="6" y="155.5" width="145" height="82" as="geometry" />
        </mxCell>
        <mxCell id="HXlSVpTfHzc4MRkyUJ3o-30" value="&lt;font color=&quot;#b3b3b3&quot;&gt;q/2&lt;/font&gt;&amp;nbsp;is just &lt;font color=&quot;#b3b3b3&quot;&gt;q &amp;gt;&amp;gt; 1&lt;/font&gt;&lt;br&gt;(Pass the first n-1 lanes)" style="shape=callout;whiteSpace=wrap;html=1;perimeter=calloutPerimeter;rounded=1;shadow=0;glass=0;sketch=0;fontColor=#FFFFFF;align=left;position2=1;spacing=6;" vertex="1" parent="1">
          <mxGeometry x="6" y="27" width="145" height="78" as="geometry" />
        </mxCell>
        <mxCell id="HXlSVpTfHzc4MRkyUJ3o-31" value="RNG" style="rounded=0;whiteSpace=wrap;html=1;fontColor=#A6A6A6;" vertex="1" parent="1">
          <mxGeometry x="359" y="60.5" width="120" height="60" as="geometry" />
        </mxCell>
        <mxCell id="HXlSVpTfHzc4MRkyUJ3o-32" value="output (8)" style="text;html=1;strokeColor=none;fillColor=none;align=center;verticalAlign=middle;whiteSpace=wrap;rounded=0;" vertex="1" parent="1">
          <mxGeometry x="419" y="60.5" width="62" height="20" as="geometry" />
        </mxCell>
        <mxCell id="HXlSVpTfHzc4MRkyUJ3o-33" value="primeGen" style="whiteSpace=wrap;html=1;fontColor=#A6A6A6;" vertex="1" parent="1">
          <mxGeometry x="359" y="268.5" width="120" height="62" as="geometry" />
        </mxCell>
        <mxCell id="HXlSVpTfHzc4MRkyUJ3o-34" value="ready" style="text;html=1;strokeColor=none;fillColor=none;align=center;verticalAlign=middle;whiteSpace=wrap;rounded=0;" vertex="1" parent="1">
          <mxGeometry x="439" y="268.5" width="40" height="20" as="geometry" />
        </mxCell>
        <mxCell id="HXlSVpTfHzc4MRkyUJ3o-35" value="multiply" style="rounded=0;whiteSpace=wrap;html=1;container=0;fontColor=#A6A6A6;" vertex="1" parent="1">
          <mxGeometry x="358" y="166.5" width="121" height="60" as="geometry" />
        </mxCell>
        <mxCell id="HXlSVpTfHzc4MRkyUJ3o-36" value="in1 (8)" style="text;html=1;align=center;verticalAlign=middle;resizable=0;points=[];autosize=1;strokeColor=none;fillColor=none;container=0;" vertex="1" parent="1">
          <mxGeometry x="356" y="165.5" width="44" height="18" as="geometry" />
        </mxCell>
        <mxCell id="HXlSVpTfHzc4MRkyUJ3o-37" value="output (8)" style="text;html=1;strokeColor=none;fillColor=none;align=center;verticalAlign=middle;whiteSpace=wrap;rounded=0;container=0;" vertex="1" parent="1">
          <mxGeometry x="422" y="206.5" width="57" height="20" as="geometry" />
        </mxCell>
        <mxCell id="HXlSVpTfHzc4MRkyUJ3o-38" value="in2 (8)" style="text;html=1;align=center;verticalAlign=middle;resizable=0;points=[];autosize=1;strokeColor=none;fillColor=none;container=0;" vertex="1" parent="1">
          <mxGeometry x="356" y="206.5" width="44" height="18" as="geometry" />
        </mxCell>
        <mxCell id="HXlSVpTfHzc4MRkyUJ3o-39" value="ready" style="text;html=1;align=center;verticalAlign=middle;resizable=0;points=[];autosize=1;strokeColor=none;fillColor=none;container=0;" vertex="1" parent="1">
          <mxGeometry x="433" y="166.5" width="50" height="20" as="geometry" />
        </mxCell>
        <mxCell id="HXlSVpTfHzc4MRkyUJ3o-40" value="output (8)" style="text;html=1;strokeColor=none;fillColor=none;align=center;verticalAlign=middle;whiteSpace=wrap;rounded=0;fontColor=#FFFFFF;" vertex="1" parent="1">
          <mxGeometry x="423" y="310.5" width="55" height="20" as="geometry" />
        </mxCell>
        <mxCell id="HXlSVpTfHzc4MRkyUJ3o-41" value="Current implementation is limited to 8-bit operations" style="text;html=1;strokeColor=none;fillColor=none;align=left;verticalAlign=middle;whiteSpace=wrap;rounded=0;shadow=0;glass=0;dashed=1;sketch=0;fontColor=#FFFFFF;" vertex="1" parent="1">
          <mxGeometry x="716" y="238.5" width="195" height="39.5" as="geometry" />
        </mxCell>
        <mxCell id="HXlSVpTfHzc4MRkyUJ3o-43" value="&lt;font color=&quot;#ffcc99&quot;&gt;Future: Serialise outputs to decrease bus width of A and B&lt;/font&gt;" style="text;html=1;strokeColor=none;fillColor=none;align=left;verticalAlign=middle;whiteSpace=wrap;rounded=0;shadow=0;glass=0;dashed=1;sketch=0;fontColor=#FFE6CC;" vertex="1" parent="1">
          <mxGeometry x="717" y="200" width="195" height="39.5" as="geometry" />
        </mxCell>
        <mxCell id="HXlSVpTfHzc4MRkyUJ3o-44" value="&lt;span style=&quot;color: rgb(240 , 240 , 240)&quot;&gt;outA (8*&lt;/span&gt;&lt;span style=&quot;color: rgb(255 , 204 , 153) ; text-align: left&quot;&gt;8&lt;/span&gt;&lt;span style=&quot;color: rgb(240 , 240 , 240)&quot;&gt;*&lt;/span&gt;&lt;span style=&quot;color: rgb(255 , 204 , 153) ; text-align: left&quot;&gt;8&lt;/span&gt;&lt;span style=&quot;color: rgb(240 , 240 , 240)&quot;&gt;)&lt;/span&gt;" style="text;html=1;strokeColor=none;fillColor=none;align=center;verticalAlign=middle;whiteSpace=wrap;rounded=0;shadow=0;glass=0;sketch=0;fontColor=#FFE6CC;" vertex="1" parent="1">
          <mxGeometry x="584" y="170" width="72" height="20" as="geometry" />
        </mxCell>
      </root>
    </mxGraphModel>
  </diagram>
</mxfile>
